<svg xmlns="http://www.w3.org/2000/svg" xmlns:xlink="http://www.w3.org/1999/xlink" width="500" zoomAndPan="magnify" viewBox="0 0 375 374.999991" height="500" preserveAspectRatio="xMidYMid meet" version="1.0"><defs><clipPath id="c3f1945960"><path d="M 177.410156 46.410156 L 303.320312 46.410156 L 303.320312 331.304688 L 177.410156 331.304688 Z M 177.410156 46.410156 " clip-rule="nonzero"/></clipPath><clipPath id="1aaed66d54"><path d="M 178.039062 46.410156 L 303.320312 46.410156 L 303.320312 249 L 178.039062 249 Z M 178.039062 46.410156 " clip-rule="nonzero"/></clipPath><clipPath id="7af8775b44"><path d="M 170 12.550781 L 208 12.550781 L 208 101 L 170 101 Z M 170 12.550781 " clip-rule="nonzero"/></clipPath></defs><g clip-path="url(#c3f1945960)"><path fill="#6b9913" d="M 296.882812 330.550781 C 262.367188 334.359375 225.585938 317.265625 228.625 254.980469 C 231.648438 192.691406 280.476562 129.546875 183.449219 81.738281 C 179.992188 86.785156 175.839844 77.617188 178.511719 65.777344 C 179.898438 59.660156 183.109375 52.8125 189.183594 46.851562 C 189.183594 46.851562 294.609375 40.015625 303.320312 174.847656 C 302.933594 203.035156 296.210938 227.613281 289.511719 248.609375 C 276.53125 289.28125 263.617188 316.523438 296.882812 330.550781 " fill-opacity="1" fill-rule="nonzero"/></g><g clip-path="url(#1aaed66d54)"><path fill="#99d148" d="M 289.511719 248.609375 C 292.058594 228.636719 292.367188 208.242188 289.804688 188.371094 C 286.507812 162.746094 277.90625 137.5 262.683594 116.648438 C 242.8125 89.429688 211.855469 70.609375 178.511719 65.777344 C 179.898438 59.660156 183.109375 52.8125 189.183594 46.851562 C 189.183594 46.851562 294.609375 40.015625 303.320312 174.847656 C 302.933594 203.035156 296.210938 227.613281 289.511719 248.609375 " fill-opacity="1" fill-rule="nonzero"/></g><path fill="#425e03" d="M 175.117188 62.808594 C 176.28125 62.855469 177.28125 62.957031 178.339844 63.070312 C 179.382812 63.1875 180.417969 63.332031 181.449219 63.488281 C 183.507812 63.800781 185.546875 64.210938 187.570312 64.652344 C 191.609375 65.566406 195.585938 66.707031 199.484375 68.054688 C 207.273438 70.769531 214.757812 74.273438 221.792969 78.492188 C 225.304688 80.609375 228.742188 82.847656 232.015625 85.308594 C 233.683594 86.488281 235.257812 87.804688 236.867188 89.054688 L 239.210938 91.03125 C 239.992188 91.691406 240.773438 92.347656 241.515625 93.046875 C 247.589844 98.507812 253.164062 104.488281 258.199219 110.875 C 252.871094 104.730469 247.042969 99.039062 240.78125 93.914062 C 240.007812 93.253906 239.207031 92.640625 238.402344 92.027344 L 236 90.179688 C 234.34375 89.019531 232.734375 87.792969 231.035156 86.703125 C 227.695312 84.433594 224.214844 82.390625 220.671875 80.476562 C 213.582031 76.660156 206.117188 73.589844 198.445312 71.3125 C 194.605469 70.179688 190.710938 69.261719 186.789062 68.566406 C 184.828125 68.226562 182.863281 67.933594 180.894531 67.722656 C 179.910156 67.621094 178.929688 67.535156 177.949219 67.464844 C 176.988281 67.40625 175.957031 67.359375 175.09375 67.367188 L 175.117188 62.808594 " fill-opacity="1" fill-rule="nonzero"/><path fill="#ffb200" d="M 276.632812 198.011719 C 276.222656 218.425781 270.523438 238.363281 260.898438 256.378906 C 220.375 332.25 166.679688 354.546875 112.109375 341.855469 C 103.054688 340.042969 95.726562 335.847656 90.230469 329.9375 C 84.40625 323.691406 80.621094 315.511719 78.945312 306.125 C 76.796875 293.988281 78.300781 281.945312 79.5625 269.789062 C 81.402344 252.085938 74.410156 239.8125 70.710938 223.175781 C 66.730469 205.246094 65.84375 186.695312 66.695312 168.386719 C 74.964844 91.277344 134.699219 80.738281 163.824219 80.257812 C 173.425781 80.097656 179.707031 81.035156 179.707031 81.035156 C 229.886719 89.621094 277.929688 133.375 276.632812 198.011719 " fill-opacity="1" fill-rule="nonzero"/><path fill="#fc9200" d="M 276.632812 198.011719 C 276.222656 218.425781 270.523438 238.363281 260.898438 256.378906 C 220.375 332.25 166.679688 354.546875 112.109375 341.855469 C 103.054688 340.042969 95.726562 335.847656 90.230469 329.9375 C 100.289062 333.796875 110.972656 335.875 122.0625 335.875 C 181.4375 335.875 229.566406 276.320312 229.566406 202.851562 C 229.566406 147.707031 202.457031 100.414062 163.824219 80.257812 C 173.425781 80.097656 179.707031 81.035156 179.707031 81.035156 C 229.886719 89.621094 277.929688 133.375 276.632812 198.011719 " fill-opacity="1" fill-rule="nonzero"/><path fill="#fed559" d="M 130.636719 165.34375 C 115.136719 203.789062 128.820312 246.632812 105.277344 237.113281 C 81.730469 227.589844 66.792969 182.683594 82.292969 144.238281 C 97.792969 105.796875 137.859375 88.371094 161.40625 97.894531 C 184.953125 107.417969 146.136719 126.898438 130.636719 165.34375 " fill-opacity="1" fill-rule="nonzero"/><path fill="#fcf8e5" d="M 111.09375 137.757812 C 108.046875 137.757812 105.496094 136.816406 103.914062 134.851562 C 99.832031 129.792969 103.714844 119.871094 112.589844 112.691406 C 118.019531 108.292969 124.058594 105.945312 128.867188 105.945312 C 131.910156 105.945312 134.460938 106.886719 136.042969 108.851562 C 140.125 113.910156 136.242188 123.832031 127.371094 131.015625 C 121.941406 135.410156 115.898438 137.757812 111.09375 137.757812 " fill-opacity="1" fill-rule="nonzero"/><path fill="#f3f9e9" d="M 285.5 126.941406 C 283.199219 122.671875 281.074219 118.402344 278.488281 114.398438 C 277.289062 112.347656 275.917969 110.410156 274.617188 108.441406 C 274.300781 107.941406 273.949219 107.46875 273.597656 106.992188 L 272.554688 105.5625 C 271.855469 104.617188 271.1875 103.644531 270.441406 102.734375 C 267.582031 98.996094 264.460938 95.488281 261.246094 92.082031 L 258.769531 89.589844 C 257.964844 88.738281 257.070312 87.976562 256.226562 87.167969 L 254.949219 85.957031 C 254.519531 85.5625 254.074219 85.183594 253.632812 84.796875 C 252.746094 84.03125 251.886719 83.238281 250.976562 82.492188 C 243.800781 76.464844 236.039062 71.117188 227.847656 66.402344 C 223.753906 64.039062 219.550781 61.847656 215.257812 59.785156 C 210.972656 57.695312 206.582031 55.8125 202.078125 54.074219 C 204.484375 54.316406 206.867188 54.777344 209.234375 55.308594 C 211.605469 55.835938 213.941406 56.492188 216.269531 57.191406 C 220.914062 58.625 225.464844 60.390625 229.894531 62.433594 C 238.742188 66.550781 247.109375 71.816406 254.640625 78.136719 C 258.375 81.328125 261.933594 84.738281 265.203125 88.410156 C 266.023438 89.332031 266.792969 90.292969 267.585938 91.230469 C 267.976562 91.699219 268.378906 92.167969 268.765625 92.644531 L 269.871094 94.121094 C 270.597656 95.113281 271.359375 96.074219 272.058594 97.085938 L 274.09375 100.15625 C 274.796875 101.15625 275.382812 102.242188 276.007812 103.296875 C 276.609375 104.363281 277.28125 105.386719 277.8125 106.492188 L 279.464844 109.769531 C 280.03125 110.851562 280.476562 111.996094 280.964844 113.113281 C 282.914062 117.582031 284.390625 122.238281 285.5 126.941406 " fill-opacity="1" fill-rule="nonzero"/><g clip-path="url(#7af8775b44)"><path fill="#99d148" d="M 207.121094 17.59375 L 207.121094 17.671875 C 207.121094 17.84375 207.113281 18.015625 207.089844 18.1875 C 207.066406 18.378906 207.042969 18.574219 207 18.765625 C 206.988281 18.859375 206.964844 18.941406 206.929688 19.027344 C 206.90625 19.152344 206.875 19.28125 206.828125 19.394531 C 206.519531 20.328125 205.972656 21.183594 205.210938 21.867188 C 196.863281 29.332031 177.894531 51.84375 181.582031 100.015625 L 177.75 100.308594 L 172.652344 100.699219 L 171.378906 100.800781 C 167.40625 49.027344 188.058594 23.621094 198.214844 14.402344 C 199.898438 12.875 202.210938 12.566406 204.144531 13.332031 C 204.53125 13.480469 204.890625 13.671875 205.234375 13.914062 L 205.273438 13.933594 C 206.269531 14.597656 206.929688 15.707031 207.078125 16.894531 C 207.109375 17.128906 207.121094 17.359375 207.121094 17.59375 " fill-opacity="1" fill-rule="nonzero"/></g><path fill="#6b9913" d="M 207.121094 17.59375 L 207.121094 17.671875 C 207.121094 17.84375 207.113281 18.015625 207.089844 18.1875 C 207.066406 18.378906 207.042969 18.574219 207 18.765625 C 206.988281 18.859375 206.964844 18.941406 206.929688 19.027344 C 206.90625 19.152344 206.875 19.28125 206.828125 19.394531 C 206.519531 20.328125 205.972656 21.183594 205.210938 21.867188 C 196.863281 29.332031 177.894531 51.84375 181.582031 100.015625 L 171.527344 102.5 C 171.527344 102.476562 171.71875 101.65625 172.652344 100.699219 C 173.3125 100.027344 174.335938 99.285156 175.90625 98.695312 C 172.414062 50.644531 193.175781 24.066406 204.144531 13.332031 C 204.53125 13.480469 204.890625 13.671875 205.234375 13.914062 L 205.273438 13.933594 C 206.269531 14.597656 206.929688 15.707031 207.078125 16.894531 C 207.109375 17.128906 207.121094 17.359375 207.121094 17.59375 " fill-opacity="1" fill-rule="nonzero"/><path fill="#d37402" d="M 159.769531 97.535156 C 162.335938 98.441406 164.839844 98.933594 167.335938 99.175781 C 169.828125 99.417969 172.296875 99.34375 174.757812 99.066406 C 175.980469 98.867188 177.214844 98.722656 178.433594 98.410156 C 179.671875 98.203125 180.867188 97.789062 182.113281 97.480469 C 182.742188 97.347656 183.332031 97.097656 183.949219 96.90625 C 184.5625 96.703125 185.1875 96.511719 185.820312 96.328125 C 187.050781 95.878906 188.292969 95.417969 189.632812 95.0625 C 189.167969 95.558594 188.671875 96.019531 188.164062 96.476562 C 187.660156 96.9375 187.144531 97.390625 186.605469 97.808594 C 186.042969 98.195312 185.472656 98.574219 184.894531 98.941406 C 184.308594 99.304688 183.742188 99.703125 183.109375 99.972656 C 181.867188 100.570312 180.613281 101.175781 179.265625 101.542969 C 178.933594 101.652344 178.597656 101.746094 178.261719 101.84375 L 177.761719 101.992188 L 177.246094 102.097656 L 175.175781 102.460938 C 172.382812 102.773438 169.503906 102.601562 166.808594 101.804688 C 164.136719 101 161.566406 99.640625 159.769531 97.535156 " fill-opacity="1" fill-rule="nonzero"/></svg>