<svg xmlns="http://www.w3.org/2000/svg" xmlns:xlink="http://www.w3.org/1999/xlink" width="500" zoomAndPan="magnify" viewBox="0 0 375 374.999991" height="500" preserveAspectRatio="xMidYMid meet" version="1.0"><defs><g/></defs><g fill="#c3c3c3" fill-opacity="1"><g transform="translate(44.812502, 232.874985)"><g><path d="M 30.90625 -19.421875 C 30.769531 -19.109375 30.675781 -18.832031 30.625 -18.59375 C 30.570312 -18.363281 30.519531 -18.171875 30.46875 -18.015625 C 29.769531 -15.117188 29.003906 -13.671875 28.171875 -13.671875 C 26.472656 -13.671875 24.585938 -13.71875 22.515625 -13.8125 C 20.453125 -13.90625 18.441406 -13.988281 16.484375 -14.0625 C 14.453125 -14.144531 12.726562 -14.21875 11.3125 -14.28125 C 9.894531 -14.34375 8.976562 -14.375 8.5625 -14.375 C 8.269531 -14.375 8.050781 -14.316406 7.90625 -14.203125 C 7.769531 -14.085938 7.703125 -13.832031 7.703125 -13.4375 C 7.703125 -13.28125 7.710938 -13.046875 7.734375 -12.734375 C 7.765625 -12.421875 7.796875 -12.101562 7.828125 -11.78125 C 7.867188 -11.457031 7.910156 -11.144531 7.953125 -10.84375 C 7.992188 -10.539062 8.039062 -10.3125 8.09375 -10.15625 C 9.050781 -5.675781 9.785156 -2.113281 10.296875 0.53125 C 10.804688 3.175781 11.0625 5.109375 11.0625 6.328125 C 11.0625 10.023438 10.253906 12.800781 8.640625 14.65625 C 8.347656 12.625 7.941406 10.265625 7.421875 7.578125 C 6.898438 4.898438 6.265625 1.863281 5.515625 -1.53125 C 4.078125 -7.75 3.359375 -11.472656 3.359375 -12.703125 C 3.359375 -12.859375 3.414062 -13.117188 3.53125 -13.484375 C 3.65625 -13.847656 3.804688 -14.238281 3.984375 -14.65625 C 4.171875 -15.070312 4.359375 -15.488281 4.546875 -15.90625 C 4.742188 -16.320312 4.910156 -16.671875 5.046875 -16.953125 C 5.328125 -17.554688 5.578125 -18.019531 5.796875 -18.34375 C 6.023438 -18.664062 6.253906 -18.945312 6.484375 -19.1875 C 6.796875 -19.519531 7.34375 -19.722656 8.125 -19.796875 C 8.90625 -19.878906 9.910156 -19.921875 11.140625 -19.921875 C 11.921875 -19.921875 12.71875 -19.898438 13.53125 -19.859375 C 14.351562 -19.828125 15.160156 -19.789062 15.953125 -19.75 C 16.753906 -19.707031 17.507812 -19.671875 18.21875 -19.640625 C 18.9375 -19.617188 19.582031 -19.609375 20.15625 -19.609375 L 20.15625 -19.8125 C 19.789062 -20.382812 19.34375 -21.019531 18.8125 -21.71875 C 18.28125 -22.425781 17.738281 -23.078125 17.1875 -23.671875 C 16.644531 -24.273438 16.117188 -24.785156 15.609375 -25.203125 C 15.097656 -25.617188 14.703125 -25.828125 14.421875 -25.828125 C 14.160156 -25.828125 13.875 -25.800781 13.5625 -25.75 C 13.25 -25.695312 12.835938 -25.519531 12.328125 -25.21875 C 11.816406 -24.914062 11.171875 -24.429688 10.390625 -23.765625 C 9.609375 -23.109375 8.617188 -22.164062 7.421875 -20.9375 C 7.296875 -20.8125 7.132812 -20.753906 6.9375 -20.765625 C 6.738281 -20.773438 6.640625 -20.882812 6.640625 -21.09375 C 6.640625 -21.195312 6.675781 -21.4375 6.75 -21.8125 C 6.832031 -22.195312 6.929688 -22.609375 7.046875 -23.046875 C 7.171875 -23.492188 7.289062 -23.90625 7.40625 -24.28125 C 7.519531 -24.65625 7.617188 -24.910156 7.703125 -25.046875 C 8.171875 -25.898438 8.742188 -26.722656 9.421875 -27.515625 C 10.097656 -28.316406 10.8125 -29.03125 11.5625 -29.65625 C 12.320312 -30.28125 13.082031 -30.785156 13.84375 -31.171875 C 14.613281 -31.566406 15.3125 -31.789062 15.9375 -31.84375 C 16.644531 -31.863281 17.675781 -31.351562 19.03125 -30.3125 C 20.382812 -29.269531 21.984375 -27.515625 23.828125 -25.046875 C 24.796875 -23.742188 25.632812 -22.660156 26.34375 -21.796875 C 27.0625 -20.941406 27.59375 -20.394531 27.9375 -20.15625 C 28.25 -19.945312 28.640625 -19.769531 29.109375 -19.625 C 29.578125 -19.488281 30.175781 -19.421875 30.90625 -19.421875 Z M 30.90625 -19.421875 "/></g></g></g><g fill="#c3c3c3" fill-opacity="1"><g transform="translate(78.871673, 232.874985)"><g><path d="M 3.984375 -52.546875 L 9.109375 -58.875 C 9.316406 -56.34375 9.484375 -54.140625 9.609375 -52.265625 C 9.742188 -50.390625 9.875 -48.828125 10 -47.578125 C 10.445312 -42.191406 10.773438 -37.664062 10.984375 -34 C 11.191406 -30.34375 11.296875 -27.488281 11.296875 -25.4375 L 11.21875 -22.390625 C 11.21875 -20.535156 11.140625 -19.257812 10.984375 -18.5625 C 10.878906 -18.25 10.695312 -17.84375 10.4375 -17.34375 C 10.175781 -16.851562 9.820312 -16.269531 9.375 -15.59375 C 8.851562 -14.78125 8.363281 -14.113281 7.90625 -13.59375 C 7.457031 -13.070312 7.035156 -12.671875 6.640625 -12.390625 L 6.71875 -18.5625 C 6.71875 -20.40625 6.570312 -23.289062 6.28125 -27.21875 C 6 -31.15625 5.5625 -36.1875 4.96875 -42.3125 L 4.5 -47.5 C 4.445312 -47.863281 4.378906 -48.460938 4.296875 -49.296875 C 4.222656 -50.128906 4.117188 -51.210938 3.984375 -52.546875 Z M 17.609375 -70.625 C 17.273438 -69.476562 16.832031 -68.4375 16.28125 -67.5 C 15.738281 -66.5625 15.050781 -65.757812 14.21875 -65.09375 C 13.382812 -64.4375 12.382812 -63.925781 11.21875 -63.5625 C 10.0625 -63.195312 8.726562 -63.015625 7.21875 -63.015625 C 6.851562 -63.015625 6.421875 -63.03125 5.921875 -63.0625 C 5.429688 -63.101562 5.003906 -63.125 4.640625 -63.125 C 3.335938 -63.125 2.195312 -62.859375 1.21875 -62.328125 C 0.25 -61.796875 -0.457031 -60.90625 -0.90625 -59.65625 L -0.984375 -59.609375 C -1.453125 -59.816406 -1.804688 -60.1875 -2.046875 -60.71875 C -2.296875 -61.257812 -2.421875 -61.789062 -2.421875 -62.3125 C -2.421875 -63.144531 -2.257812 -63.890625 -1.9375 -64.546875 C -1.613281 -65.210938 -1.175781 -65.78125 -0.625 -66.25 C -0.0820312 -66.71875 0.546875 -67.082031 1.265625 -67.34375 C 1.984375 -67.601562 2.734375 -67.734375 3.515625 -67.734375 C 4.316406 -67.734375 5.140625 -67.675781 5.984375 -67.5625 C 6.835938 -67.445312 7.679688 -67.390625 8.515625 -67.390625 C 9.316406 -67.390625 10.117188 -67.445312 10.921875 -67.5625 C 11.734375 -67.675781 12.5 -67.894531 13.21875 -68.21875 C 13.9375 -68.550781 14.585938 -69.007812 15.171875 -69.59375 C 15.753906 -70.175781 16.242188 -70.953125 16.640625 -71.921875 Z M 17.609375 -70.625 "/></g></g></g><g fill="#c3c3c3" fill-opacity="1"><g transform="translate(93.674914, 232.874985)"><g/></g></g><g fill="#c3c3c3" fill-opacity="1"><g transform="translate(109.688973, 232.874985)"><g><path d="M 20.703125 -24.734375 L 23.28125 -30.3125 C 27.863281 -26.039062 30.15625 -21.640625 30.15625 -17.109375 C 30.15625 -15.890625 29.984375 -14.640625 29.640625 -13.359375 C 29.304688 -12.085938 28.828125 -10.828125 28.203125 -9.578125 C 27.578125 -8.328125 26.820312 -7.117188 25.9375 -5.953125 C 25.050781 -4.796875 24.0625 -3.738281 22.96875 -2.78125 C 21.195312 -1.289062 19.453125 -0.175781 17.734375 0.5625 C 16.015625 1.3125 14.296875 1.6875 12.578125 1.6875 C 11.171875 1.6875 9.707031 1.332031 8.1875 0.625 C 6.664062 -0.0820312 5.054688 -1.140625 3.359375 -2.546875 C 1.117188 -4.390625 0 -5.753906 0 -6.640625 C 0 -6.898438 0.101562 -7.03125 0.3125 -7.03125 C 0.9375 -7.03125 1.65625 -6.769531 2.46875 -6.25 C 4.988281 -4.789062 7.578125 -4.0625 10.234375 -4.0625 C 13.492188 -4.0625 16.929688 -5.40625 20.546875 -8.09375 C 21.429688 -8.738281 22.269531 -9.4375 23.0625 -10.1875 C 23.863281 -10.945312 24.5625 -11.6875 25.15625 -12.40625 C 25.757812 -13.125 26.234375 -13.800781 26.578125 -14.4375 C 26.929688 -15.070312 27.109375 -15.585938 27.109375 -15.984375 C 27.109375 -17.390625 24.972656 -20.304688 20.703125 -24.734375 Z M 20.703125 -24.734375 "/></g></g></g><g fill="#c3c3c3" fill-opacity="1"><g transform="translate(143.045088, 232.874985)"><g><path d="M 27.109375 -12.5 C 23.234375 -12.757812 20.363281 -13.441406 18.5 -14.546875 C 16.632812 -15.660156 15.703125 -17.414062 15.703125 -19.8125 C 15.703125 -21.289062 15.941406 -22.769531 16.421875 -24.25 C 16.910156 -25.738281 17.535156 -27.078125 18.296875 -28.265625 C 19.066406 -29.453125 19.941406 -30.421875 20.921875 -31.171875 C 21.898438 -31.929688 22.894531 -32.3125 23.90625 -32.3125 C 24.925781 -32.3125 25.878906 -31.925781 26.765625 -31.15625 C 27.648438 -30.382812 28.46875 -29.269531 29.21875 -27.8125 C 29.925781 -26.40625 30.472656 -24.898438 30.859375 -23.296875 C 31.253906 -21.703125 31.453125 -19.941406 31.453125 -18.015625 C 31.453125 -14.421875 30.789062 -11.179688 29.46875 -8.296875 C 28.15625 -5.421875 26.195312 -2.835938 23.59375 -0.546875 C 20.570312 2.054688 17.515625 3.359375 14.421875 3.359375 C 10.117188 3.359375 6.25 1.144531 2.8125 -3.28125 C 0.9375 -5.625 0 -7.28125 0 -8.25 C 0 -8.507812 0.078125 -8.640625 0.234375 -8.640625 L 0.3125 -8.71875 L 0.390625 -8.71875 C 0.546875 -8.664062 0.726562 -8.550781 0.9375 -8.375 C 1.144531 -8.207031 1.394531 -7.941406 1.6875 -7.578125 C 2.257812 -6.773438 2.941406 -6.050781 3.734375 -5.40625 C 4.523438 -4.769531 5.390625 -4.222656 6.328125 -3.765625 C 7.265625 -3.316406 8.25 -2.972656 9.28125 -2.734375 C 10.3125 -2.503906 11.347656 -2.390625 12.390625 -2.390625 C 15.742188 -2.390625 18.679688 -3.253906 21.203125 -4.984375 C 23.734375 -6.710938 25.703125 -9.21875 27.109375 -12.5 Z M 27.9375 -18.203125 C 27.957031 -18.597656 27.804688 -19.226562 27.484375 -20.09375 C 27.160156 -20.96875 26.710938 -21.851562 26.140625 -22.75 C 25.566406 -23.65625 24.90625 -24.445312 24.15625 -25.125 C 23.414062 -25.800781 22.671875 -26.140625 21.921875 -26.140625 C 21.472656 -26.140625 21.0625 -26.035156 20.6875 -25.828125 C 20.3125 -25.617188 19.984375 -25.347656 19.703125 -25.015625 C 19.429688 -24.691406 19.21875 -24.328125 19.0625 -23.921875 C 18.90625 -23.523438 18.828125 -23.117188 18.828125 -22.703125 C 18.828125 -22.179688 19.003906 -21.648438 19.359375 -21.109375 C 19.710938 -20.578125 20.257812 -20.097656 21 -19.671875 C 21.738281 -19.242188 22.679688 -18.890625 23.828125 -18.609375 C 24.972656 -18.335938 26.34375 -18.203125 27.9375 -18.203125 Z M 27.9375 -18.203125 "/></g></g></g><g fill="#c3c3c3" fill-opacity="1"><g transform="translate(178.315079, 232.874985)"><g><path d="M 3.984375 -52.546875 L 9.109375 -58.875 C 9.316406 -56.34375 9.484375 -54.140625 9.609375 -52.265625 C 9.742188 -50.390625 9.875 -48.828125 10 -47.578125 C 10.445312 -42.191406 10.773438 -37.664062 10.984375 -34 C 11.191406 -30.34375 11.296875 -27.488281 11.296875 -25.4375 L 11.21875 -22.390625 C 11.21875 -20.535156 11.140625 -19.257812 10.984375 -18.5625 C 10.878906 -18.25 10.695312 -17.84375 10.4375 -17.34375 C 10.175781 -16.851562 9.820312 -16.269531 9.375 -15.59375 C 8.851562 -14.78125 8.363281 -14.113281 7.90625 -13.59375 C 7.457031 -13.070312 7.035156 -12.671875 6.640625 -12.390625 L 6.71875 -18.5625 C 6.71875 -20.40625 6.570312 -23.289062 6.28125 -27.21875 C 6 -31.15625 5.5625 -36.1875 4.96875 -42.3125 L 4.5 -47.5 C 4.445312 -47.863281 4.378906 -48.460938 4.296875 -49.296875 C 4.222656 -50.128906 4.117188 -51.210938 3.984375 -52.546875 Z M 3.984375 -52.546875 "/></g></g></g><g fill="#c3c3c3" fill-opacity="1"><g transform="translate(193.11832, 232.874985)"><g/></g></g><g fill="#c3c3c3" fill-opacity="1"><g transform="translate(209.13238, 232.874985)"><g><path d="M 40.46875 -25.59375 C 40.882812 -26.914062 41.359375 -28.1875 41.890625 -29.40625 C 42.429688 -30.632812 42.894531 -31.585938 43.28125 -32.265625 C 44.613281 -30.421875 45.609375 -28.335938 46.265625 -26.015625 C 46.929688 -23.703125 47.265625 -21.398438 47.265625 -19.109375 C 47.265625 -16.578125 46.628906 -14.894531 45.359375 -14.0625 C 44.703125 -13.644531 43.796875 -13.253906 42.640625 -12.890625 C 41.484375 -12.523438 40.164062 -12.191406 38.6875 -11.890625 C 37.21875 -11.597656 35.644531 -11.332031 33.96875 -11.09375 C 32.289062 -10.863281 30.625 -10.671875 28.96875 -10.515625 C 27.3125 -10.359375 25.710938 -10.234375 24.171875 -10.140625 C 22.640625 -10.046875 21.273438 -10 20.078125 -10 C 17.503906 -10 15.191406 -10.21875 13.140625 -10.65625 C 11.097656 -11.101562 9.375 -11.738281 7.96875 -12.5625 C 6.5625 -13.382812 5.476562 -14.394531 4.71875 -15.59375 C 3.96875 -16.789062 3.59375 -18.15625 3.59375 -19.6875 C 3.59375 -21.226562 4 -23.015625 4.8125 -25.046875 C 5.664062 -27.203125 6.457031 -28.398438 7.1875 -28.640625 L 7.265625 -28.71875 C 7.316406 -28.71875 7.367188 -28.691406 7.421875 -28.640625 L 7.546875 -28.640625 L 7.625 -28.5625 L 7.625 -28.40625 C 7.625 -28.007812 7.53125 -27.550781 7.34375 -27.03125 C 6.875 -25.5 6.640625 -24.003906 6.640625 -22.546875 C 6.640625 -21.421875 6.898438 -20.46875 7.421875 -19.6875 C 7.941406 -18.90625 8.773438 -18.265625 9.921875 -17.765625 C 11.066406 -17.273438 12.535156 -16.910156 14.328125 -16.671875 C 16.128906 -16.441406 18.320312 -16.328125 20.90625 -16.328125 C 23.457031 -16.328125 25.988281 -16.410156 28.5 -16.578125 C 31.007812 -16.753906 33.332031 -16.976562 35.46875 -17.25 C 37.601562 -17.519531 39.4375 -17.820312 40.96875 -18.15625 C 42.507812 -18.5 43.582031 -18.84375 44.1875 -19.1875 C 44.132812 -19.675781 43.988281 -20.207031 43.75 -20.78125 C 43.519531 -21.351562 43.234375 -21.925781 42.890625 -22.5 C 42.554688 -23.070312 42.171875 -23.625 41.734375 -24.15625 C 41.304688 -24.695312 40.882812 -25.175781 40.46875 -25.59375 Z M 28.015625 6.375 L 20.5625 2.3125 C 21.050781 1.320312 21.53125 0.410156 22 -0.421875 C 22.46875 -1.253906 22.925781 -2.050781 23.375 -2.8125 C 25.769531 -1.632812 28.164062 -0.359375 30.5625 1.015625 C 30.25 1.929688 29.875 2.832031 29.4375 3.71875 C 29.007812 4.601562 28.535156 5.488281 28.015625 6.375 Z M 28.015625 6.375 "/></g></g></g><g fill="#c3c3c3" fill-opacity="1"><g transform="translate(256.393374, 232.874985)"><g><path d="M 16.09375 -58.875 C 16.09375 -58.039062 16.128906 -56.441406 16.203125 -54.078125 C 16.285156 -51.722656 16.429688 -48.609375 16.640625 -44.734375 C 16.953125 -38.691406 17.191406 -33.796875 17.359375 -30.046875 C 17.535156 -26.296875 17.625 -23.640625 17.625 -22.078125 L 17.625 -16.40625 C 17.625 -15.757812 17.492188 -15.234375 17.234375 -14.828125 C 16.972656 -14.421875 16.519531 -14.109375 15.875 -13.890625 C 15.238281 -13.671875 14.394531 -13.519531 13.34375 -13.4375 C 12.289062 -13.363281 10.96875 -13.328125 9.375 -13.328125 C 8.28125 -13.328125 7.234375 -13.335938 6.234375 -13.359375 C 5.234375 -13.390625 4.316406 -13.421875 3.484375 -13.453125 C 2.648438 -13.492188 1.925781 -13.535156 1.3125 -13.578125 C 0.695312 -13.617188 0.257812 -13.648438 0 -13.671875 C -0.65625 -13.722656 -1.148438 -13.941406 -1.484375 -14.328125 C -1.828125 -14.722656 -2 -15.492188 -2 -16.640625 C -2 -17.785156 -1.832031 -18.535156 -1.5 -18.890625 C -1.175781 -19.242188 -0.675781 -19.421875 0 -19.421875 C 0.257812 -19.421875 0.675781 -19.398438 1.25 -19.359375 C 1.820312 -19.316406 2.472656 -19.273438 3.203125 -19.234375 C 3.929688 -19.203125 4.707031 -19.164062 5.53125 -19.125 C 6.351562 -19.082031 7.15625 -19.0625 7.9375 -19.0625 C 8.6875 -19.0625 9.554688 -19.066406 10.546875 -19.078125 C 11.535156 -19.097656 12.65625 -19.210938 13.90625 -19.421875 C 13.90625 -20.984375 13.75 -23.226562 13.4375 -26.15625 C 13.125 -29.082031 12.695312 -32.734375 12.15625 -37.109375 C 11.375 -43.441406 10.785156 -48.640625 10.390625 -52.703125 C 11.359375 -54.003906 12.320312 -55.164062 13.28125 -56.1875 C 14.25 -57.21875 15.1875 -58.113281 16.09375 -58.875 Z M 16.09375 -58.875 "/></g></g></g><g fill="#c3c3c3" fill-opacity="1"><g transform="translate(277.83658, 232.874985)"><g><path d="M 3.75 -53.28125 L 8.953125 -58.875 C 8.953125 -53.09375 9.378906 -42.960938 10.234375 -28.484375 L 10.546875 -23.4375 C 10.597656 -22.550781 10.710938 -21.828125 10.890625 -21.265625 C 11.078125 -20.710938 11.316406 -20.316406 11.609375 -20.078125 C 11.890625 -19.867188 12.390625 -19.707031 13.109375 -19.59375 C 13.828125 -19.476562 14.769531 -19.421875 15.9375 -19.421875 L 15.9375 -13.671875 C 11.71875 -13.671875 9.101562 -14.207031 8.09375 -15.28125 C 7.050781 -16.320312 6.332031 -19.25 5.9375 -24.0625 L 5.59375 -27.421875 C 5.507812 -28.410156 5.410156 -29.769531 5.296875 -31.5 C 5.179688 -33.238281 5.046875 -35.34375 4.890625 -37.8125 C 4.734375 -40.363281 4.554688 -42.925781 4.359375 -45.5 C 4.160156 -48.082031 3.957031 -50.675781 3.75 -53.28125 Z M 3.75 -53.28125 "/></g></g></g><g fill="#c3c3c3" fill-opacity="1"><g transform="translate(293.772522, 232.874985)"><g><path d="M 9.5 -19.53125 C 8.789062 -20.34375 8.234375 -21.039062 7.828125 -21.625 C 7.429688 -22.207031 7.132812 -22.710938 6.9375 -23.140625 C 6.738281 -23.578125 6.613281 -23.96875 6.5625 -24.3125 C 6.507812 -24.664062 6.484375 -25.023438 6.484375 -25.390625 C 6.484375 -25.941406 6.609375 -26.632812 6.859375 -27.46875 C 7.109375 -28.300781 7.457031 -29.175781 7.90625 -30.09375 C 8.363281 -31.019531 8.925781 -31.9375 9.59375 -32.84375 C 10.257812 -33.757812 11.007812 -34.585938 11.84375 -35.328125 C 12.675781 -36.078125 13.59375 -36.675781 14.59375 -37.125 C 15.59375 -37.582031 16.65625 -37.8125 17.78125 -37.8125 C 18.875 -37.8125 20.003906 -37.5625 21.171875 -37.0625 C 22.347656 -36.570312 23.421875 -35.921875 24.390625 -35.109375 C 25.367188 -34.304688 26.175781 -33.390625 26.8125 -32.359375 C 27.457031 -31.335938 27.78125 -30.304688 27.78125 -29.265625 C 27.78125 -28.953125 27.609375 -28.796875 27.265625 -28.796875 C 27.054688 -28.796875 26.816406 -28.863281 26.546875 -29 C 26.273438 -29.144531 25.957031 -29.320312 25.59375 -29.53125 C 24.414062 -30.1875 23.226562 -30.722656 22.03125 -31.140625 C 20.832031 -31.554688 19.597656 -31.765625 18.328125 -31.765625 C 17.359375 -31.765625 16.488281 -31.660156 15.71875 -31.453125 C 14.957031 -31.242188 14.304688 -30.984375 13.765625 -30.671875 C 13.234375 -30.359375 12.820312 -30.007812 12.53125 -29.625 C 12.25 -29.25 12.109375 -28.878906 12.109375 -28.515625 C 12.109375 -27.765625 12.328125 -26.921875 12.765625 -25.984375 C 13.210938 -25.046875 13.8125 -24.160156 14.5625 -23.328125 C 15.320312 -22.492188 16.195312 -21.796875 17.1875 -21.234375 C 18.175781 -20.671875 19.21875 -20.390625 20.3125 -20.390625 C 21.539062 -20.390625 23.285156 -20.53125 25.546875 -20.8125 C 27.816406 -21.101562 30.523438 -21.578125 33.671875 -22.234375 C 33.390625 -21.140625 33.117188 -20.140625 32.859375 -19.234375 C 32.597656 -18.335938 32.234375 -17.421875 31.765625 -16.484375 C 28.972656 -15.890625 26.15625 -15.410156 23.3125 -15.046875 C 20.476562 -14.679688 17.6875 -14.398438 14.9375 -14.203125 C 12.195312 -14.003906 9.554688 -13.863281 7.015625 -13.78125 C 4.472656 -13.707031 2.132812 -13.671875 0 -13.671875 C -0.882812 -13.671875 -1.453125 -13.875 -1.703125 -14.28125 C -1.953125 -14.6875 -2.078125 -15.445312 -2.078125 -16.5625 C -2.078125 -17.707031 -1.960938 -18.46875 -1.734375 -18.84375 C -1.515625 -19.226562 -1.066406 -19.421875 -0.390625 -19.421875 Z M 19.296875 -45.4375 L 11.84375 -49.5 C 12.332031 -50.488281 12.8125 -51.398438 13.28125 -52.234375 C 13.75 -53.066406 14.207031 -53.863281 14.65625 -54.625 C 17.050781 -53.445312 19.445312 -52.171875 21.84375 -50.796875 C 21.53125 -49.878906 21.15625 -48.976562 20.71875 -48.09375 C 20.289062 -47.207031 19.816406 -46.320312 19.296875 -45.4375 Z M 19.296875 -45.4375 "/></g></g></g></svg>